<?xml version="1.0" ?><svg height="464pt" id="svg2866" version="1.0" width="464pt" xmlns="http://www.w3.org/2000/svg" xmlns:cc="http://web.resource.org/cc/" xmlns:dc="http://purl.org/dc/elements/1.1/" xmlns:inkscape="http://www.inkscape.org/namespaces/inkscape" xmlns:rdf="http://www.w3.org/1999/02/22-rdf-syntax-ns#" xmlns:sodipodi="http://inkscape.sourceforge.net/DTD/sodipodi-0.dtd" xmlns:svg="http://www.w3.org/2000/svg"><defs id="defs2869"/><path d="M 62.404222,45.384891 L 512.30226,38.293502 L 506.62915,497.28294 L 73.750445,494.44638 L 62.404222,45.384891 z " id="path2879" style="fill:#fdfdfd"/><path d="M 40.764096,572.12195 C 21.043477,566.95546 9.272732,555.17105 3.829163,535.14411 C 2.163134,529.01476 2.062383,514.98654 2.062383,289.1441 C 2.062383,62.847849 2.160438,49.261758 3.840986,42.708723 C 8.088132,26.147636 17.218912,14.243716 30.562383,7.871679 C 45.651341,0.666103 27.319971,1.144109 288.56238,1.144109 C 549.04918,1.144109 531.55235,0.702014 546.09736,7.651278 C 558.5606,13.605924 567.30993,24.969459 572.27007,41.644109 C 573.95782,47.317862 574.06955,60.528893 574.3249,284.60817 C 574.62482,547.79064 574.99509,532.26139 568.07035,546.92444 C 561.76855,560.26841 549.75254,569.30101 533.8081,572.67987 C 528.06421,573.89708 491.49333,574.10378 287.56238,574.07167 C 55.011888,574.03508 47.850611,573.97851 40.764096,572.12195 z M 420.55793,402.64867 C 443.11038,380.10119 461.56238,361.08869 461.56238,360.39867 C 461.56238,359.40147 442.27847,359.1441 367.56238,359.1441 C 292.94832,359.1441 273.56238,358.88589 273.56238,357.89209 C 273.56238,357.20347 315.41238,314.79189 366.56238,263.6441 C 417.71238,212.49633 459.56238,170.19999 459.56238,169.65226 C 459.56238,168.16671 400.2839,109.14411 398.79189,109.14411 C 398.08625,109.14411 355.28812,151.2191 303.68493,202.6441 C 252.08175,254.0691 209.56878,296.1441 209.21167,296.1441 C 208.85456,296.1441 208.56238,253.3941 208.56238,201.1441 C 208.56238,148.8941 208.22689,106.14411 207.81684,106.14411 C 207.4068,106.14411 188.5068,124.70458 165.81684,147.38958 L 124.56238,188.63506 L 124.56238,315.80625 C 124.56238,416.60435 124.82161,443.08327 125.81238,443.48777 C 126.49988,443.76845 183.87288,443.91844 253.30793,443.82111 L 379.55348,443.6441 L 420.55793,402.64867 z " id="path2877" style="fill:#000000"/></svg>